<?xml version="1.0" encoding="UTF-8" standalone="no"?>
<svg width="99px" height="99px" viewBox="0 0 99 99" version="1.1" xmlns="http://www.w3.org/2000/svg" xmlns:xlink="http://www.w3.org/1999/xlink">
    <!-- Generator: Sketch 3.7.2 (28276) - http://www.bohemiancoding.com/sketch -->
    <title>ASA_logo-02</title>
    <desc>Created with Sketch.</desc>
    <defs></defs>
    <g id="Symbols" stroke="none" stroke-width="1" fill="none" fill-rule="evenodd">
        <g id="_Header" transform="translate(-291.000000, -29.000000)">
            <g id="title" transform="translate(247.000000, 28.000000)">
                <g id="ASA_logo-02" transform="translate(44.000000, 1.000000)">
                    <path d="M49.4003172,1.21189655 C22.9147448,1.21189655 1.36961379,22.7583931 1.36961379,49.2432828 C1.36961379,75.7274897 22.9147448,97.2733034 49.4003172,97.2733034 C75.8852069,97.2733034 97.4303379,75.7274897 97.4303379,49.2432828 C97.4303379,22.7583931 75.8852069,1.21189655 49.4003172,1.21189655" id="Fill-1" fill="#FFFFFF"></path>
                    <path d="M49.4003172,1.21189655 C22.9147448,1.21189655 1.36961379,22.7583931 1.36961379,49.2432828 C1.36961379,75.7274897 22.9147448,97.2733034 49.4003172,97.2733034 C75.8852069,97.2733034 97.4303379,75.7274897 97.4303379,49.2432828 C97.4303379,22.7583931 75.8852069,1.21189655 49.4003172,1.21189655 L49.4003172,1.21189655 Z M49.4003172,98.3711793 C22.3105034,98.3711793 0.271737931,76.3324138 0.271737931,49.2432828 C0.271737931,22.1541517 22.3105034,0.114703448 49.4003172,0.114703448 C76.4894483,0.114703448 98.5282138,22.1541517 98.5282138,49.2432828 C98.5282138,76.3324138 76.4894483,98.3711793 49.4003172,98.3711793 L49.4003172,98.3711793 Z" id="Fill-2" fill="#1A1918"></path>
                    <text id="-" font-family="LucidaGrande, Lucida Grande" font-size="9.65434345" font-weight="normal"></text>
                    <text id="-" font-family=".HelveticaNeueDeskInterface-Regular, .Helvetica Neue DeskInterface" font-size="6.28165241" font-weight="normal"></text>
                    <text id="-" font-family=".HelveticaNeueDeskInterface-Regular, .Helvetica Neue DeskInterface" font-size="1.90339448" font-weight="normal"></text>
                    <path d="M15.0527793,76.3651862 L15.0684828,76.385669 L17.3652828,75.6817448 L16.3049586,74.3216897 L15.0527793,76.3651862 L15.0527793,76.3651862 Z M18.2241931,72.7766069 L17.9381172,72.9991862 L17.7742552,72.8312276 C17.5025172,72.5663172 17.3652828,72.5588069 17.1085655,72.9889448 L16.5971793,73.8307862 L17.8957862,75.4980828 C18.153869,75.4291241 18.4529172,75.3273931 18.7826897,75.2024483 C19.2592552,75.0112759 19.2510621,74.8535586 19.0714966,74.5169586 L18.9103655,74.247269 L19.1971241,74.0240069 L20.6554966,75.896131 L20.3694207,76.1200759 C19.941331,75.6967655 19.7276276,75.5506552 18.7704,75.8196621 L13.8818483,77.1619655 L13.5131586,76.8581379 L16.2086897,72.193531 C16.5978621,71.5114552 16.5268552,71.2718069 16.2004966,70.7692966 L16.4872552,70.5460345 L18.2241931,72.7766069 L18.2241931,72.7766069 Z" id="Fill-3" fill="#1A1918"></path>
                    <path d="M7.83943448,66.2064207 C8.1494069,66.7335103 8.36447586,66.9007862 8.74135862,66.7546759 C9.07113103,66.6310966 9.45962069,66.4788414 10.2584483,66.0760138 L13.4100621,64.485869 L13.6264966,64.9146414 L11.1972414,70.5289655 L11.2149931,70.5351103 L13.011331,69.6290897 C13.8217655,69.2194345 14.2095724,68.980469 14.4697034,68.8056828 C14.8056207,68.5783241 14.7994759,68.3052207 14.5236414,67.6443103 L14.8486345,67.481131 L15.9943034,69.7513034 L15.6693103,69.9158483 C15.3600207,69.4174345 15.1449517,69.2501586 14.7626069,69.3846621 C14.4662897,69.4904897 14.0436621,69.6604966 13.2332276,70.0687862 L11.6799517,70.8525931 C10.7186276,71.3373517 10.6448897,71.6220621 10.9842207,72.4393241 L10.6592276,72.6025034 L9.82421379,70.9454483 L11.9059448,65.8261241 L11.8943379,65.8029103 L10.4817103,66.5157103 C9.69312414,66.9130759 9.32238621,67.1295103 9.05064828,67.3104414 C8.69151724,67.5494069 8.69834483,67.7931517 8.98510345,68.4765931 L8.66147586,68.6404552 L7.51512414,66.3696 L7.83943448,66.2064207" id="Fill-4" fill="#1A1918"></path>
                    <path d="M8.26684138,56.7556759 C8.50102759,57.2848138 8.54882069,57.3121241 9.1755931,57.1462138 L9.94096552,56.9434345 C10.2673241,56.8567241 10.5493034,56.7549931 10.7240897,56.6553103 C11.0374759,57.2301931 11.4826345,57.9982966 11.6758552,58.7254345 C12.2404966,60.8576897 11.4116276,62.5946276 9.59275862,63.0759724 C7.48576552,63.634469 5.97618621,62.1419586 5.47094483,60.2350138 C5.25792414,59.4320897 5.25655862,58.6674 5.25792414,58.3178276 C5.54946207,58.2003931 6.06631034,58.0235586 6.82348966,57.7422621 L6.95731034,58.095931 C5.90791034,58.6428207 5.7024,59.4355034 5.94477931,60.3510828 C6.24997241,61.5049448 7.41885517,62.2689517 9.08751724,61.8272069 C10.4673724,61.461931 11.6601517,60.3401586 11.2382069,58.7472828 C11.1316966,58.3458207 10.8797586,57.9027103 10.3909034,58.0317517 L9.50058621,58.2679862 C8.88610345,58.4304828 8.82397241,58.5014897 9.00217241,59.5276759 L8.65055172,59.6212138 L7.91658621,56.848531 L8.26684138,56.7556759" id="Fill-5" fill="#1A1918"></path>
                    <path d="M8.54335862,49.3907586 C8.9496,49.4399172 9.97237241,49.5634966 10.2762,49.6201655 L10.6223586,54.5626552 L10.2598138,54.5879172 C10.1321379,53.6873586 10.0624966,53.6272759 9.14418621,53.6914552 L5.9085931,53.918131 C4.99028276,53.9823103 4.95682759,54.0628759 4.95,54.8958414 L4.58813793,54.9211034 L4.3758,51.893069 L4.73766207,51.8678069 C4.86465517,52.7431034 4.90835172,52.8182069 5.84031724,52.7526621 L9.16603448,52.5198414 C9.61870345,52.4877517 9.84674483,52.4071862 9.92594483,52.2324 C10.0030966,52.0453241 10.0065103,51.7196483 9.97646897,51.2922414 C9.92389655,50.7241862 9.82284828,50.3930483 9.54837931,50.1916345 C9.32921379,50.0250414 9.03494483,49.9158 8.51809655,49.7696897 L8.54335862,49.3907586" id="Fill-6" fill="#1A1918"></path>
                    <path d="M10.3472069,47.7343862 L9.98466207,47.7070759 C9.98261379,46.8741103 9.92389655,46.7914966 9.00490345,46.7218552 L5.79593793,46.4787931 C4.86465517,46.408469 4.80730345,46.4822069 4.67962759,47.3056138 L4.31708276,47.2776207 L4.5423931,44.3021586 L4.90562069,44.329469 C4.91995862,45.1638 4.95273103,45.2443655 5.88469655,45.3146897 L9.09297931,45.5577517 C10.0119724,45.6267103 10.0829793,45.5543379 10.2099724,44.730931 L10.5718345,44.7589241 L10.3472069,47.7343862" id="Fill-7" fill="#1A1918"></path>
                    <path d="M10.4298207,36.7836207 C10.8565448,37.0055172 11.619869,37.4418 11.8957034,37.682131 C11.9107241,37.9518207 11.8738552,38.9431862 11.7195517,39.5870276 C11.1610552,41.9213793 9.43708966,42.6560276 7.87288966,42.2811931 C5.96731034,41.8251103 5.06811724,39.9557172 5.56311724,37.8862759 C5.75702069,37.0785724 6.10317931,36.4675034 6.25748276,36.1582138 C6.77774483,36.2155655 7.25294483,36.2899862 7.86128276,36.3691862 L7.8489931,36.7522138 C6.6726,36.7645034 6.14277931,37.3045655 5.9318069,38.1880552 C5.63275862,39.4368207 6.49371724,40.5770276 8.03265517,40.9450345 C9.68493103,41.3410345 11.0374759,40.5975103 11.3180897,39.4238483 C11.520869,38.5792759 11.1706138,37.8678414 10.2509379,37.1413862 L10.4298207,36.7836207" id="Fill-8" fill="#1A1918"></path>
                    <path d="M9.31965517,31.6472276 L9.30941379,31.6704414 L11.0053862,33.3705103 L11.7120414,31.7974345 L9.31965517,31.6472276 L9.31965517,31.6472276 Z M13.9774345,32.7703655 L13.6456138,32.6222069 L13.7179862,32.3982621 C13.8244966,32.033669 13.7671448,31.9087241 13.2666828,31.8834621 L12.2828276,31.8254276 L11.4170897,33.7549034 C11.5987034,33.9501724 11.8287931,34.1666069 12.0937034,34.4001103 C12.4849241,34.731931 12.6207931,34.6506828 12.8344966,34.3338828 L12.9976759,34.0662414 L13.328131,34.2150828 L12.3565655,36.3801103 L12.0247448,36.2319517 C12.1981655,35.6557034 12.2282069,35.3989862 11.5420345,34.6779931 L8.0667931,30.9849517 L8.16306207,30.5165793 L13.5486621,30.7159448 C14.3338345,30.7412069 14.5120345,30.5650552 14.8042552,30.0420621 L15.1353931,30.1909034 L13.9774345,32.7703655 L13.9774345,32.7703655 Z" id="Fill-9" fill="#1A1918"></path>
                    <path d="M14.8684345,20.5865379 C14.5495862,21.1061172 14.5024759,21.3751241 14.807669,21.6393517 C15.0718966,21.8721724 15.3886966,22.1439103 16.1192483,22.6600759 L19.0011724,24.6946966 L18.7246552,25.0866 L12.6303517,25.5781862 L12.6337655,25.5966207 L14.2758,26.7559448 C15.0172759,27.2796207 15.4105448,27.5097103 15.6877448,27.6571862 C16.0455103,27.8463103 16.2831103,27.7124897 16.7371448,27.1601379 L17.0334621,27.3690621 L15.5675793,29.4460138 L15.2705793,29.2370897 C15.5648483,28.7298 15.6119586,28.4614759 15.3135931,28.1870069 C15.0814552,27.9760345 14.7332483,27.6817655 13.9910897,27.1587724 L12.5716345,26.1564828 C11.6922414,25.5358552 11.4061655,25.6034483 10.8449379,26.2862069 L10.5479379,26.0772828 L11.6178207,24.5622414 L17.1126621,23.9962345 L17.1283655,23.9757517 L15.8352207,23.0629034 C15.1149103,22.5535655 14.7503172,22.3282552 14.4635586,22.173269 C14.0832621,21.9684414 13.8709241,22.0892897 13.4025517,22.6628069 L13.1055517,22.4532 L14.5721172,20.376931 L14.8684345,20.5865379" id="Fill-10" fill="#1A1918"></path>
                    <path d="M23.9716552,14.0047448 C23.2916276,13.5309103 22.5918,13.2851172 21.9868759,13.7548552 C21.505531,14.1290069 21.4987034,14.6922828 21.8018483,15.0814552 C22.2074069,15.605131 22.7583931,15.4890621 23.3708276,15.3258828 L23.6398345,15.2480483 C24.5881862,14.9886 25.5024,14.8540966 26.138731,15.6740897 C26.8235379,16.555531 26.5224414,17.7756207 25.4757724,18.5874207 C24.7998414,19.1124621 24.1068414,19.2565241 23.8446621,19.2797379 C23.6398345,19.1425034 23.0656345,18.6352138 22.5877034,18.1688897 L22.8287172,17.8657448 C23.4752897,18.3170483 24.5677034,18.7506 25.346731,18.1456759 C25.839,17.7640138 25.9038621,17.1706966 25.5460966,16.7091517 C25.1398552,16.1861586 24.5861379,16.2558 23.9941862,16.4032759 L23.6685103,16.4920345 C22.9031379,16.6914 21.8906069,16.8689172 21.2863655,16.0898897 C20.6172621,15.228931 20.8016069,14.1324207 21.8988,13.2810207 C22.3801448,12.9075517 22.891531,12.7395931 23.123669,12.6583448 C23.4247655,12.9177931 23.7620483,13.2475655 24.2481724,13.7248138 L23.9716552,14.0047448" id="Fill-11" fill="#1A1918"></path>
                    <path d="M32.712331,11.8916069 C32.8318138,12.357931 33.0141103,13.2175241 33.0202552,13.5828 C32.8290828,13.7746552 32.0650759,14.4075724 31.482,14.7216414 C29.3702276,15.8604828 27.6735724,15.0657517 26.9102483,13.6497103 C25.9810138,11.9257448 26.7750621,10.0085586 28.6471862,8.99944138 C29.3777379,8.60548966 30.0639103,8.45596552 30.3977793,8.36447586 C30.7016069,8.79051724 30.9637862,9.19471034 31.3092621,9.69995172 L31.0156759,9.9477931 C30.2229931,9.07795862 29.4671793,9.04313793 28.667669,9.47395862 C27.5370207,10.0843448 27.261869,11.4860483 28.0122207,12.8788759 C28.8192414,14.3741172 30.2748828,14.886869 31.3358897,14.3140345 C32.1019448,13.9016483 32.3975793,13.1663172 32.3272552,11.996069 L32.712331,11.8916069" id="Fill-12" fill="#1A1918"></path>
                    <path d="M38.5881517,11.7004345 L38.4816414,11.3529103 C39.2285793,11.0449862 39.2845655,10.9603241 39.0128276,10.0665931 L38.5792759,8.64031034 L35.7874759,9.48897931 L36.2210276,10.9159448 C36.4927655,11.8089931 36.5897172,11.8602 37.3284621,11.7038483 L37.4336069,12.0513724 L34.6418069,12.9000414 L34.5366621,12.5525172 C35.3238828,12.2452759 35.3791862,12.1606138 35.1040345,11.2552759 L34.1836759,8.22724138 C33.9085241,7.32190345 33.8190828,7.2945931 32.9649517,7.4727931 L32.8598069,7.12526897 L35.7007655,6.26157931 L35.8065931,6.60910345 C35.0849172,6.90951724 35.0221034,6.9696 35.300669,7.88791034 L35.6324897,8.98032414 L38.4242897,8.13097241 L38.092469,7.03924138 C37.8173172,6.13390345 37.7237793,6.09430345 36.9611379,6.25816552 L36.8546276,5.91064138 L39.6464276,5.06197241 L39.7488414,5.39788966 C38.9930276,5.7222 38.9336276,5.79457241 39.2094621,6.69991034 L40.1291379,9.72726207 C40.4008759,10.6209931 40.4944138,10.6599103 41.2987034,10.496731 L41.404531,10.8442552 L38.5881517,11.7004345" id="Fill-13" fill="#1A1918"></path>
                    <path d="M43.5470276,7.35672414 C43.7054276,9.07454483 44.6810897,10.197 45.8827448,10.0863931 C46.8386069,9.99831724 47.6142207,9.22338621 47.4414828,7.35057931 C47.3062966,5.87786897 46.4364621,4.48572414 45.1317103,4.6052069 C44.1881379,4.69191724 43.3906759,5.65187586 43.5470276,7.35672414 L43.5470276,7.35672414 Z M48.7482828,6.9696 C48.9469655,9.12711724 47.4073448,10.3765655 45.8055931,10.5233586 C43.6999655,10.7172621 42.3829241,9.28756552 42.2429586,7.76296552 C42.0319862,5.47708966 43.7484414,4.30274483 45.2341241,4.1661931 C47.1588207,3.98935862 48.5885172,5.22583448 48.7482828,6.9696 L48.7482828,6.9696 Z" id="Fill-14" fill="#1A1918"></path>
                    <path d="M51.5448621,7.00988276 C51.3796345,8.72633793 52.1293034,10.0099241 53.3295931,10.1253103 C54.2847724,10.2174828 55.1907931,9.60095172 55.3710414,7.72882759 C55.5123724,6.25748276 54.9163241,4.72810345 53.6122552,4.60247586 C52.670731,4.51303448 51.7080414,5.3064 51.5448621,7.00988276 L51.5448621,7.00988276 Z M56.7249517,7.59842069 C56.5173931,9.75388966 54.7736276,10.6940483 53.1725586,10.5404276 C51.0689793,10.338331 50.0414276,8.68946897 50.1882207,7.16623448 C50.4073862,4.88172414 52.3109172,4.04807586 53.7952345,4.19077241 C55.7185655,4.37511724 56.8922276,5.85602069 56.7249517,7.59842069 L56.7249517,7.59842069 Z" id="Fill-15" fill="#1A1918"></path>
                    <path d="M63.501331,10.8859034 C63.3128897,11.2498138 62.842469,12.1660759 62.684069,12.4303034 L57.9279724,11.0374759 L58.0297034,10.689269 C58.9200207,10.8824897 58.9999034,10.8381103 59.2593517,9.95393793 L60.1708345,6.84192414 C60.4296,5.95775172 60.3661034,5.89835172 59.5870759,5.60271724 L59.6894897,5.25451034 L62.6021379,6.10795862 L62.5004069,6.45616552 C61.6353517,6.27045517 61.5500069,6.28547586 61.2878276,7.18262069 L60.3504,10.3813448 C60.2227241,10.8176276 60.2193103,11.0600069 60.3551793,11.1945103 C60.5040207,11.3324276 60.8078483,11.4484966 61.2195517,11.5693448 C61.7712207,11.7168207 62.1166966,11.7373034 62.4007241,11.5502276 C62.6335448,11.4013862 62.8383724,11.164469 63.1544897,10.7302345 L63.501331,10.8859034" id="Fill-16" fill="#1A1918"></path>
                    <path d="M72.0856552,11.8144552 L72.0638069,11.8001172 L70.1568621,13.2598552 L71.6234276,14.1658759 L72.0856552,11.8144552 L72.0856552,11.8144552 Z M70.3623724,16.2824276 L70.5535448,15.9738207 L70.7652,16.0741862 C71.1127241,16.2278069 71.2444966,16.1868414 71.3346207,15.6945724 L71.5210138,14.7277862 L69.7226276,13.6169379 C69.5055103,13.7719241 69.2597172,13.9706069 68.9948069,14.2034276 C68.6145103,14.5475379 68.6773241,14.6929655 68.9627172,14.9455862 L69.2071448,15.1422207 L69.0166552,15.4508276 L66.9977379,14.2041103 L67.1882276,13.8955034 C67.7364828,14.1426621 67.9870552,14.2061586 68.7906621,13.6203517 L72.9049655,10.6599103 L73.3569517,10.8162621 L72.4550276,16.1267586 C72.3273517,16.9016897 72.4782414,17.1010552 72.9582207,17.4595034 L72.767731,17.7681103 L70.3623724,16.2824276 L70.3623724,16.2824276 Z" id="Fill-17" fill="#1A1918"></path>
                    <path d="M79.2191172,17.6404345 C79.5577655,16.8846207 79.6676897,16.1520207 79.0934897,15.6454138 C78.6360414,15.2425862 78.0816414,15.342269 77.7566483,15.7116414 C77.319,16.2086897 77.5361172,16.7269034 77.8105862,17.2976897 L77.9362138,17.5468966 C78.3690828,18.4297034 78.6722276,19.302269 77.9867379,20.079931 C77.2493586,20.9169931 75.995131,20.8494 75.0024,19.9747862 C74.3599241,19.4087793 74.0895517,18.7553793 74.0178621,18.5027586 C74.114131,18.2760828 74.5039862,17.6172207 74.8733586,17.0614552 L75.2154207,17.2410207 C74.8931586,17.9599655 74.6719448,19.1131448 75.4113724,19.7651793 C75.8790621,20.1768828 76.4730621,20.1304552 76.8588207,19.6921241 C77.296469,19.1964414 77.1250966,18.6645724 76.8697448,18.1115379 L76.7215862,17.8077103 C76.3822552,17.0942276 76.0190276,16.1335862 76.6703793,15.3941586 C77.3906897,14.5768966 78.5008552,14.553 79.5420621,15.4699448 C79.9995103,15.8734552 80.2589586,16.3438759 80.3818552,16.5562138 C80.1831724,16.8996414 79.9237241,17.2929103 79.5461586,17.8596 L79.2191172,17.6404345" id="Fill-18" fill="#1A1918"></path>
                    <path d="M83.8987448,22.8232552 C84.3534621,22.1295724 84.5787724,21.4236 84.0926483,20.832331 C83.7055241,20.3619103 83.1415655,20.3707862 82.761269,20.6841724 C82.2498828,21.104069 82.3809724,21.6516414 82.5612207,22.2599793 L82.6458828,22.5255724 C82.9326414,23.4664138 83.0924069,24.3758483 82.2901655,25.0353931 C81.4292069,25.7440966 80.2009241,25.4771379 79.3604483,24.4550483 C78.8162897,23.7934552 78.6531103,23.1045517 78.623069,22.8430552 C78.7548414,22.6348138 79.2450621,22.0462759 79.6984138,21.5567379 L80.0077034,21.7888759 C79.5748345,22.4477379 79.1720069,23.5510759 79.7980966,24.3130345 C80.1940966,24.7943793 80.7880966,24.8428552 81.2394,24.4721172 C81.7501034,24.0522207 81.6661241,23.4991862 81.5022621,22.9120138 L81.4046276,22.589069 C81.1834138,21.8305241 80.9779034,20.8234552 81.7391793,20.1973655 C82.5810207,19.505731 83.6816276,19.658669 84.563069,20.7312828 C84.9508759,21.2023862 85.1318069,21.7083103 85.2198828,21.9384 C84.9686276,22.2449586 84.6490966,22.5924828 84.1861862,23.0908966 L83.8987448,22.8232552" id="Fill-19" fill="#1A1918"></path>
                    <path d="M85.3414138,26.9464345 C83.8352483,27.7882759 83.2064276,29.1367241 83.7949655,30.1895379 C84.2640207,31.0279655 85.2874759,31.4219172 86.9295103,30.5036069 C88.2206069,29.7812483 89.1396,28.4198276 88.4991724,27.2762069 C88.0369448,26.450069 86.8366552,26.1100552 85.3414138,26.9464345 L85.3414138,26.9464345 Z M87.8082207,31.5427655 C85.9169793,32.6003586 84.15,31.7011655 83.3648276,30.296731 C82.3324966,28.4505517 83.103331,26.6665034 84.4394897,25.9188828 C86.444069,24.7984759 88.2144621,25.8895241 88.9429655,27.1915448 C89.8865379,28.8793241 89.3376,30.6879517 87.8082207,31.5427655 L87.8082207,31.5427655 Z" id="Fill-20" fill="#1A1918"></path>
                    <path d="M89.1559862,39.5706414 C88.6760069,39.6034138 87.7979793,39.6279931 87.4368,39.5672276 C87.2831793,39.3446483 86.7991034,38.4789103 86.5949586,37.8494069 C85.8568966,35.5648966 86.9458966,34.0409793 88.4766414,33.5459793 C90.3405724,32.9431034 92.0822897,34.0717034 92.7370552,36.0954 C92.9924069,36.8860345 93.0142552,37.5879103 93.0442966,37.9327034 C92.5704621,38.1539172 92.1259862,38.3389448 91.5654414,38.5881517 L91.3756345,38.2542828 C92.3745103,37.6309241 92.5452,36.8935448 92.2659517,36.0298552 C91.8713172,34.8077172 90.5419862,34.2826759 89.0358207,34.7694828 C87.4183655,35.2924759 86.6516276,36.6313655 87.0223655,37.7790828 C87.2900069,38.6059034 87.9591103,39.0305793 89.122531,39.1725931 L89.1559862,39.5706414" id="Fill-21" fill="#1A1918"></path>
                    <path d="M87.7740828,41.7964345 L88.1332138,41.741131 C88.3230207,42.5522483 88.3994897,42.6191586 89.3096069,42.4791931 L92.4898966,41.9910207 C93.4129862,41.8490069 93.453269,41.7643448 93.3911379,40.9334276 L93.750269,40.8788069 L94.2029379,43.8290069 L93.8438069,43.8836276 C93.6403448,43.0745586 93.5905034,43.0035517 92.6674138,43.1455655 L89.4864414,43.6337379 C88.5756414,43.7737034 88.5237517,43.8604138 88.5858828,44.6906483 L88.2267517,44.7459517 L87.7740828,41.7964345" id="Fill-22" fill="#1A1918"></path>
                    <path d="M93.1542207,48.5577931 L93.1542207,48.5318483 L90.8970207,47.7125379 L90.924331,49.4371862 L93.1542207,48.5577931 L93.1542207,48.5577931 Z M88.4602552,49.5163862 L88.8241655,49.5102414 L88.8535241,49.7430621 C88.9115586,50.1185793 89.0167034,50.2073379 89.4809793,50.0182138 L90.3958759,49.6536207 L90.3624207,47.5391172 C90.1138966,47.4394345 89.8141655,47.3404345 89.4748345,47.2421172 C88.9798345,47.106931 88.8910759,47.2387034 88.8323586,47.616269 L88.7989034,47.9276069 L88.4349931,47.933069 L88.3974414,45.5598 L88.7599862,45.5543379 C88.8480621,46.1497034 88.9293103,46.394131 89.8558138,46.7559931 L94.5702621,48.626069 L94.6815517,49.0917103 L89.7199448,51.1952897 C88.9989517,51.5052621 88.9115586,51.740131 88.8692276,52.3382276 L88.506,52.3430069 L88.4602552,49.5163862 L88.4602552,49.5163862 Z" id="Fill-23" fill="#1A1918"></path>
                    <path d="M91.9696345,58.209269 C92.5001379,58.1703517 92.7978207,58.1109517 92.9712414,58.0051241 C93.201331,57.8692552 93.3208138,57.5995655 93.4013793,57.060869 L93.4846759,56.5092 L89.354669,55.8885724 C88.4315793,55.7499724 88.3557931,55.8168828 88.152331,56.7304138 L87.7809103,56.6744276 L88.2492828,53.5583172 L88.6213862,53.6143034 C88.5524276,54.5087172 88.6043172,54.5954276 89.5280897,54.7340276 L93.6580966,55.3546552 L93.7154483,54.9702621 C93.8315172,54.2001103 93.7707517,53.9946 93.5645586,53.7931862 C93.4068414,53.6252276 93.1630966,53.496869 92.7056483,53.3097931 L92.7616345,52.9376897 C93.512669,53.0906276 94.1571931,53.2524414 94.6166897,53.3343724 L94.5750414,53.6177172 C94.3483655,53.7276414 94.3053517,53.838931 94.2794069,54.0976966 L93.6970138,57.9709862 C93.6574138,58.2399931 93.6983793,58.3116828 93.8438069,58.4775931 L93.8021586,58.7602552 C93.3911379,58.6981241 92.4837517,58.6271172 91.9375448,58.5970759 L91.9696345,58.209269" id="Fill-24" fill="#1A1918"></path>
                    <path d="M87.1473103,59.4088759 L87.493469,59.5167517 C87.3098069,60.3292345 87.3487241,60.4220897 88.2281172,60.6951931 L91.300531,61.6483241 C92.191531,61.9255241 92.2645862,61.8668069 92.5725103,61.0932414 L92.9193517,61.2004345 L92.0351793,64.0495862 L91.6883379,63.9423931 C91.8603931,63.1258138 91.8453724,63.0397862 90.9543724,62.763269 L87.8819586,61.8101379 C87.0025655,61.5370345 86.9179034,61.5923379 86.6099793,62.3659034 L86.2631379,62.2580276 L87.1473103,59.4088759" id="Fill-25" fill="#1A1918"></path>
                    <path d="M88.1229724,66.2624069 C86.5785724,65.4943034 85.1106414,65.7366828 84.5739931,66.8168069 C84.147269,67.6757172 84.3992069,68.742869 86.0835724,69.5792483 C87.4074414,70.2374276 89.0494759,70.227869 89.631869,69.0542069 C90.053131,68.2069034 89.6557655,67.0236828 88.1229724,66.2624069 L88.1229724,66.2624069 Z M85.7217103,70.8915103 C83.7813103,69.9274552 83.5273241,67.9617931 84.2428552,66.5211724 C85.1836966,64.6285655 87.0913241,64.2578276 88.4616207,64.9392207 C90.5180897,65.9606276 90.6164069,68.0368966 89.9520828,69.3730552 C89.0918069,71.1038483 87.2900069,71.6705379 85.7217103,70.8915103 L85.7217103,70.8915103 Z" id="Fill-26" fill="#1A1918"></path>
                    <path d="M82.5584897,79.4806138 C82.9026,78.9753724 82.9613172,78.7090966 82.667731,78.4312138 C82.4151103,78.1861034 82.1119655,77.9000276 81.4046276,77.3497241 L78.6189724,75.1819655 L78.9139241,74.8037172 L85.0280276,74.5954759 L85.0259793,74.5777241 L83.4385655,73.341931 C82.721669,72.7841172 82.3400069,72.5355931 82.0696345,72.3751448 C81.7200621,72.1689517 81.477,72.2918483 80.9977034,72.8230345 L80.7109448,72.6004552 L82.2730966,70.5931448 L82.5598552,70.8164069 C82.2416897,71.3093586 82.1822897,71.5749517 82.4683655,71.8630759 C82.6902621,72.0849724 83.0248138,72.3949448 83.7410276,72.9527586 L85.1140552,74.0205931 C85.9634069,74.6821862 86.2528966,74.6275655 86.8462138,73.9714345 L87.1329724,74.1946966 L85.9927655,75.6592138 L80.4740276,75.9685034 L80.4583241,75.9883034 L81.7077724,76.9612345 C82.4041862,77.5026621 82.7578552,77.7450414 83.0377862,77.9136828 C83.4078414,78.1362621 83.6249586,78.0256552 84.1206414,77.4739862 L84.4074,77.6965655 L82.8452483,79.7045586 L82.5584897,79.4806138" id="Fill-27" fill="#1A1918"></path>
                    <path d="M83.4815793,49.2432828 C83.4815793,68.0662552 68.2219241,83.3238621 49.4003172,83.3238621 C30.5773448,83.3238621 15.3183724,68.0662552 15.3183724,49.2432828 C15.3183724,30.4203103 30.5773448,15.1620207 49.4003172,15.1620207 C68.2219241,15.1620207 83.4815793,30.4203103 83.4815793,49.2432828" id="Fill-28" fill="#64B0CF"></path>
                    <path d="M49.4003172,15.5832828 C30.8402069,15.5832828 15.7403172,30.6824897 15.7403172,49.2432828 C15.7403172,67.8033931 30.8402069,82.9032828 49.4003172,82.9032828 C67.9604276,82.9032828 83.0596345,67.8033931 83.0596345,49.2432828 C83.0596345,30.6824897 67.9604276,15.5832828 49.4003172,15.5832828 L49.4003172,15.5832828 Z M49.4003172,83.553269 C30.4817586,83.553269 15.090331,68.1618414 15.090331,49.2432828 C15.090331,30.3247241 30.4817586,14.9326138 49.4003172,14.9326138 C68.3188759,14.9326138 83.7096207,30.3247241 83.7096207,49.2432828 C83.7096207,68.1618414 68.3188759,83.553269 49.4003172,83.553269 L49.4003172,83.553269 Z" id="Fill-29" fill="#1A1918"></path>
                    <path d="M49.4003172,13.4496621 C29.6638138,13.4496621 13.6073793,29.5060966 13.6073793,49.2432828 C13.6073793,68.9797862 29.6638138,85.0362207 49.4003172,85.0362207 C69.1368207,85.0362207 85.1925724,68.9797862 85.1925724,49.2432828 C85.1925724,29.5060966 69.1368207,13.4496621 49.4003172,13.4496621 L49.4003172,13.4496621 Z M49.4003172,85.637731 C29.3333586,85.637731 13.005869,69.3109241 13.005869,49.2432828 C13.005869,29.1756414 29.3333586,12.8488345 49.4003172,12.8488345 C69.4679586,12.8488345 85.7940828,29.1756414 85.7940828,49.2432828 C85.7940828,69.3109241 69.4679586,85.637731 49.4003172,85.637731 L49.4003172,85.637731 Z" id="Fill-30" fill="#1A1918"></path>
                    <path d="M75.7172483,51.858931 C75.7172483,72.6373241 49.477469,81.420331 49.477469,81.420331 C49.477469,81.420331 23.2356414,72.6373241 23.2356414,51.6445448 L23.2356414,26.0458759 L75.7172483,26.0458759 L75.7172483,51.858931" id="Fill-31" fill="#FFFFFF"></path>
                    <polygon id="Fill-32" fill="#1A1918" points="22.9434207 40.4800759 75.9855724 40.4800759 75.9855724 41.121869 22.9434207 41.121869"></polygon>
                    <polygon id="Fill-33" fill="#1A1918" points="20.6186276 24.0638276 78.1826897 24.0638276 78.1826897 24.8681172 20.6186276 24.8681172"></polygon>
                    <polyline id="Fill-34" fill="#D8213B" points="75.8681379 43.0383724 75.8681379 52.7547103 23.0615379 52.7553931 23.0615379 43.0383724 75.8681379 43.0383724"></polyline>
                    <path d="M49.477469,81.420331 C49.477469,81.420331 51.839131,80.6290138 55.1436828,78.9624 L55.1436828,26.0458759 L43.6316897,26.0458759 L43.6316897,78.8647655 C47.0297793,80.6010207 49.477469,81.420331 49.477469,81.420331" id="Fill-35" fill="#D8213B"></path>
                    <polygon id="Fill-36" fill="#1A1918" points="42.9878483 26.0458759 43.6316897 26.0458759 43.6316897 79.6178483 42.9878483 79.6178483"></polygon>
                    <polygon id="Fill-37" fill="#1A1918" points="55.1436828 26.0458759 55.7868414 26.0458759 55.7868414 79.598731 55.1436828 79.598731"></polygon>
                    <polygon id="Fill-38" fill="#1A1918" points="40.8781241 25.8069103 41.5199172 25.8069103 41.5199172 78.1902 40.8781241 78.1902"></polygon>
                    <polygon id="Fill-39" fill="#1A1918" points="57.2547724 26.0458759 57.8958828 26.0458759 57.8958828 78.5390897 57.2547724 78.5390897"></polygon>
                    <path d="M75.7172483,51.858931 C75.7172483,72.6373241 49.477469,81.420331 49.477469,81.420331 C49.477469,81.420331 23.2356414,72.6373241 23.2356414,51.6445448 L23.2356414,26.0458759 L75.7172483,26.0458759 L75.7172483,51.858931 L75.7172483,51.858931 Z M21.9336207,24.8681172 L21.9336207,52.3791931 C21.9336207,74.4145448 49.477469,82.9906759 49.477469,82.9906759 C49.477469,82.9906759 77.0213172,74.4145448 77.0213172,52.6045034 L77.0213172,24.8681172 L21.9336207,24.8681172 L21.9336207,24.8681172 Z" id="Fill-40" fill="#1A1918"></path>
                    <polygon id="Fill-41" fill="#1A1918" points="22.7720483 42.408869 76.1562621 42.408869 76.1562621 43.0506621 22.7720483 43.0506621"></polygon>
                    <polygon id="Fill-42" fill="#1A1918" points="23.2827517 54.6828207 75.6469241 54.6828207 75.6469241 55.3252966 23.2827517 55.3252966"></polygon>
                    <polygon id="Fill-43" fill="#1A1918" points="22.9188414 52.7553931 76.0101517 52.7553931 76.0101517 53.3971862 22.9188414 53.3971862"></polygon>
                    <path d="M35.3313931,56.0353655 L35.3313931,40.2916345 L47.0106621,40.2916345 L47.1028345,40.295731 C48.4430897,40.3339655 49.4904414,41.4147724 49.4904414,42.7516138 C49.4904414,42.8492483 49.4842966,42.9455172 49.4733724,43.0383724 L49.4713241,43.0759241 L49.4713241,53.2688276 L49.4733724,53.2872621 C49.4842966,53.3821655 49.4904414,53.477069 49.4904414,53.5747034 C49.4904414,54.9135931 48.4430897,55.9923517 47.1028345,56.031269 L46.9580897,56.0353655 L35.3313931,56.0353655" id="Fill-44" fill="#FFFFFF"></path>
                    <path d="M47.1130759,39.9693724 L35.009131,39.9693724 L35.009131,56.3569448 L47.1130759,56.3569448 L47.1130759,56.3521655 C48.6103655,56.3098345 49.8120207,55.0829172 49.8120207,53.5747034 C49.8120207,53.4654621 49.8031448,53.3589517 49.7922207,53.2517586 L49.7922207,43.0759241 C49.8031448,42.9694138 49.8120207,42.8622207 49.8120207,42.7516138 C49.8120207,41.2440828 48.6103655,40.0178483 47.1130759,39.9748345 L47.1130759,39.9693724 L47.1130759,39.9693724 Z M46.9635517,40.612531 L47.0939586,40.6159448 C48.2587448,40.6507655 49.1695448,41.5881931 49.1695448,42.7516138 C49.1695448,42.8267172 49.1654483,42.9052345 49.1538414,43.0042345 L49.1483793,43.0383724 L49.1483793,53.2872621 L49.1538414,53.3227655 C49.1654483,53.4210828 49.1695448,53.5016483 49.1695448,53.5747034 C49.1695448,54.7381241 48.2587448,55.6769172 47.0939586,55.7103724 L46.9806207,55.7151517 L35.6516069,55.7151517 L35.6516069,40.612531 L46.9635517,40.612531 L46.9635517,40.612531 Z" id="Fill-45" fill="#1A1918"></path>
                    <polygon id="Fill-46" fill="#1A1918" points="37.0662828 40.1311862 37.5483103 40.1311862 37.5483103 56.1971793 37.0662828 56.1971793"></polygon>
                    <path d="M44.1362483,48.8056345 L41.7786828,48.8056345 L43.226131,46.0227103 L44.671531,48.8056345 L44.1362483,48.8056345 L44.1362483,48.8056345 Z M47.6169517,51.5899241 C46.9212207,51.5899241 43.226131,43.4507586 43.226131,43.4507586 C43.226131,43.4507586 39.5303586,51.5899241 38.8339448,51.5899241 L38.2447241,51.5899241 L38.2447241,52.1798276 L39.9584483,52.1798276 C40.2254069,52.1798276 41.2973379,49.8775655 41.2973379,49.8775655 L45.1542414,49.8775655 C45.1542414,49.8775655 46.2241241,52.1798276 46.4917655,52.1798276 L48.2061724,52.1798276 L48.2061724,51.5899241 L47.6169517,51.5899241 L47.6169517,51.5899241 Z" id="Fill-47" fill="#1A1918"></path>
                    <path d="M51.9490552,56.0353655 L51.8507379,56.031269 C50.512531,55.9923517 49.4638138,54.9135931 49.4638138,53.5747034 C49.4638138,53.477069 49.4713241,53.3821655 49.482931,53.2872621 L49.4842966,53.2517586 L49.4842966,43.0581724 L49.482931,43.0383724 C49.4713241,42.9455172 49.4638138,42.8492483 49.4638138,42.7516138 C49.4638138,41.4147724 50.512531,40.3339655 51.8507379,40.295731 L51.9845586,40.2916345 L63.6228621,40.2916345 L63.6228621,56.0353655 L51.9490552,56.0353655" id="Fill-48" fill="#FFFFFF"></path>
                    <path d="M63.9444414,39.9693724 L51.8418621,39.9693724 L51.8418621,39.9748345 C50.3432069,40.0178483 49.1429172,41.2440828 49.1429172,42.7516138 C49.1429172,42.8622207 49.1490621,42.9694138 49.1620345,43.0759241 L49.1620345,53.2517586 C49.1490621,53.3589517 49.1429172,53.4654621 49.1429172,53.5747034 C49.1429172,55.0829172 50.3432069,56.3098345 51.8418621,56.3521655 L51.8418621,56.3569448 L63.9444414,56.3569448 L63.9444414,39.9693724 L63.9444414,39.9693724 Z M63.3012828,40.612531 L63.3012828,55.7151517 L52.0002621,55.7151517 L51.8596138,55.7103724 C50.6961931,55.6769172 49.7847103,54.7381241 49.7847103,53.5747034 C49.7847103,53.5016483 49.7894897,53.4210828 49.8004138,53.3227655 L49.8045103,53.2872621 L49.8045103,43.0383724 L49.8004138,43.0042345 C49.7894897,42.9052345 49.7847103,42.8267172 49.7847103,42.7516138 C49.7847103,41.5881931 50.6961931,40.6507655 51.8596138,40.6159448 L51.9647586,40.612531 L63.3012828,40.612531 L63.3012828,40.612531 Z" id="Fill-49" fill="#1A1918"></path>
                    <polygon id="Fill-50" fill="#1A1918" points="61.3199172 40.1311862 61.8019448 40.1311862 61.8019448 56.1971793 61.3199172 56.1971793"></polygon>
                    <path d="M60.0936828,46.9580897 C60.0936828,44.4687517 58.1123172,43.2363724 55.8366828,43.2363724 C55.799131,43.2363724 55.7649931,43.2377379 55.7281241,43.2377379 C55.6939862,43.2377379 55.660531,43.2363724 55.6243448,43.2363724 C53.3473448,43.2363724 51.3646138,44.4687517 51.3646138,46.9580897 C51.3646138,49.4487931 53.4217655,50.2906345 53.4217655,51.5537379 L51.7394483,51.5373517 L51.7394483,52.1272552 L54.8999379,52.1272552 L54.9060828,51.5318897 C54.9060828,50.7023379 52.6761931,49.5553034 52.6761931,46.7983241 C52.6761931,44.6018897 54.3762621,44.1601448 55.3717241,44.0884552 C55.3765034,44.0911862 55.3819655,44.0925517 55.3819655,44.0925517 C55.3819655,44.0925517 55.516469,44.0782138 55.7281241,44.0768483 C55.9431931,44.0782138 56.0783793,44.0925517 56.0783793,44.0925517 C56.0783793,44.0925517 56.0817931,44.0911862 56.0865724,44.0884552 C57.0834,44.1601448 58.783469,44.6018897 58.783469,46.7983241 C58.783469,49.5553034 56.5542621,50.7023379 56.5542621,51.5318897 L56.5597241,52.1272552 L59.7202138,52.1272552 L59.7202138,51.5373517 L58.036531,51.5537379 C58.036531,50.2906345 60.0936828,49.4487931 60.0936828,46.9580897" id="Fill-51" fill="#1A1918"></path>
                </g>
            </g>
        </g>
    </g>
</svg>